Coordinates																							
version=1																							
nRows=46																							
nColumns=24																							
inDegrees=yes																							
																							
"Units are S.I. units (second, meters, Newtons, ...)"																							
"If the header above contains a line with 'inDegrees', this indicates whether rotational values are in degrees (yes) or radians (no)."																							
																							
endheader																							
time	pelvis_tilt	pelvis_list	pelvis_rotation	pelvis_tx	pelvis_ty	pelvis_tz	hip_flexion_r	hip_adduction_r	hip_rotation_r	knee_flex_r	ankle_angle_r	subtalar_angle_r	mtp_angle_r	hip_flexion_l	hip_adduction_l	hip_rotation_l	knee_flex_l	ankle_angle_l	subtalar_angle_l	mtp_angle_l	lumbar_extension	lumbar_bending	lumbar_rotation
97.5	-3.46891993	-5.95483093	-6.07138568	1.33350373	0.98564566	-0.66162653	22.94804047	6.51105339	1.05472711	-56.33968539	18.1613727	-22.23766538	0	-11.21656031	-0.54552644	8.02847034	-9.83374616	19.43620891	-33.31698754	0	-31.60902723	3.86955977	1.71133384
97.51	-3.52446092	-6.1001183	-6.00117176	1.33285067	0.98486946	-0.66170531	23.77559253	6.68053151	0.98981042	-55.58422236	18.5531549	-22.21536464	0	-12.01208846	-0.75555309	7.8321856	-8.84133173	19.143265	-33.22078404	0	-31.58726538	4.05379782	1.34822422
97.52	-3.60131217	-6.22569897	-5.89060961	1.33213467	0.98386795	-0.66183106	24.5992885	6.78182762	0.86028405	-54.77001215	18.93376939	-22.21788772	0	-12.72260453	-0.96417693	7.70946765	-7.92106408	18.93887628	-33.03272716	0	-31.54358807	4.2514968	0.93481642
97.53	-3.67934909	-6.23489761	-5.73468818	1.33131566	0.98278205	-0.66204528	25.38465729	6.75395532	0.83301656	-54.07950595	19.56256994	-21.81737279	0	-13.38707271	-1.06654929	7.50213297	-7.04214201	19.10480779	-32.28926626	0	-31.4981594	4.35875433	0.41951063
97.54	-3.75140206	-6.28878516	-5.56866272	1.33065913	0.98157025	-0.66219483	26.10406538	6.74877091	0.77168411	-53.31497088	19.90528719	-21.84305713	0	-13.91530917	-1.2072395	7.14558897	-6.48241822	19.48578401	-31.27413986	0	-31.43756445	4.52571665	-0.07090699
97.55	-3.80082677	-6.30360624	-5.45335301	1.33014047	0.98027465	-0.66221789	26.72797957	6.75769795	0.88678379	-52.53444743	20.12448937	-21.93466684	0	-14.52481814	-1.29803941	6.69089936	-5.84620472	19.91927907	-30.19488293	0	-31.37870022	4.64272067	-0.43274101
97.56	-3.89326667	-6.35006177	-5.34736778	1.32958267	0.97882426	-0.66197787	27.34590169	6.84772836	1.07412002	-51.78146438	20.36774193	-21.96052175	0	-15.12704582	-1.43303266	6.5443426	-5.10105946	19.83658724	-29.96749199	0	-31.24949994	4.77469854	-0.71978777
97.57	-3.97347034	-6.35570267	-5.14555398	1.32895556	0.97733899	-0.66202797	27.92186292	6.7492783	1.03704212	-51.09014855	20.82559389	-21.46682703	0	-15.6240559	-1.54068123	6.11952162	-4.58186568	20.38089632	-28.78479756	0	-31.15674076	4.93448954	-1.20066399
97.58	-4.04341841	-6.31674273	-4.52792272	1.32758934	0.97593818	-0.66306886	28.46204034	6.45709058	0.85674315	-50.42409388	20.94789124	-21.27142403	0	-15.91710049	-1.65614374	6.62127023	-4.27797641	20.47913742	-28.5485	0	-31.14543282	5.28985588	-1.95212041
97.59	-4.0649145	-6.34568253	-4.39920306	1.32734737	0.97431256	-0.6627692	28.86225359	6.45215974	1.0050078	-49.92844594	21.44948006	-20.41714148	0	-16.60296041	-1.76750486	6.331153	-3.55804412	20.61725344	-28.00423033	0	-31.07896336	5.42753199	-2.20930434
97.6	-4.11508835	-6.44994245	-4.19595271	1.32688284	0.97268586	-0.66246093	29.19883974	6.52651657	1.14029608	-49.40490239	21.88169594	-19.71001278	0	-17.14302556	-1.97048557	6.14171604	-3.09809419	20.97725515	-27.36214314	0	-30.99029901	5.69238842	-2.50228733
97.61	-4.10735429	-6.56974902	-4.00706109	1.32665136	0.97098701	-0.66214629	29.41704447	6.63488882	1.31558175	-48.99391537	22.3015712	-19.06823931	0	-17.94574996	-2.19392255	6.06806437	-2.26731226	20.99941781	-27.07687471	0	-30.95702559	5.97031141	-2.72148498
97.62	-4.13521754	-6.65643055	-3.80920236	1.32635983	0.96928538	-0.66162649	29.59024239	6.70752444	1.46431842	-48.57135801	22.80441767	-18.48395938	0	-18.68310941	-2.4069309	5.87766903	-1.46126383	21.12090079	-26.56849873	0	-30.89049525	6.19342723	-2.9396667
97.63	-4.12911039	-6.74916366	-3.63010854	1.32629078	0.96749121	-0.66102386	29.64444658	6.85009253	1.72647369	-48.23343404	23.10264416	-18.38173671	0	-19.39769878	-2.60472093	5.81233772	-0.82468353	21.17664694	-26.37719398	0	-30.83449797	6.42473762	-3.13281678
97.64	-4.03949907	-6.8976322	-3.43585621	1.326477	0.96559227	-0.66026312	29.53869388	6.97726219	1.76684535	-47.96633884	23.62678426	-18.10533	0	-20.2321416	-2.85897981	5.55928933	-0.21094144	21.59324098	-25.64001477	0	-30.81547311	6.69757212	-3.184837
97.65	-4.02066963	-6.97043519	-3.24470377	1.32660378	0.96369735	-0.65942558	29.41937317	7.06660098	1.87385623	-47.69752279	23.8671668	-18.25467078	0	-20.67774373	-3.02754787	5.77183269	-0.15851351	21.87983387	-25.70995093	0	-30.75198762	6.91162338	-3.3387434
97.66	-3.99194202	-7.03939864	-3.0197451	1.32680643	0.96173656	-0.65846161	29.17438803	7.13674567	1.89907805	-47.39116142	24.06545234	-18.60206926	0	-21.32522377	-3.24302574	5.71572088	0.27291502	21.89257982	-25.6846099	0	-30.67781375	7.11403847	-3.51580083
97.67	-3.93548497	-7.11054245	-2.77101189	1.32738373	0.95962045	-0.65735298	28.84557273	7.25429552	1.98424585	-47.22124523	23.99341226	-19.28071176	0	-22.03538902	-3.47061156	5.63342569	0.72390869	22.02464441	-25.37567599	0	-30.57241233	7.31033052	-3.6273865
97.68	-3.9557251	-7.11310532	-2.50212886	1.32781059	0.95760235	-0.65618629	28.56947966	7.27542421	2.01206125	-47.18029857	23.69488967	-19.69983369	0	-22.541995	-3.64424823	5.52784411	0.99059654	22.20264317	-25.02960183	0	-30.42756333	7.45951581	-3.78760689
97.69	-4.00220082	-7.10278248	-2.20059953	1.3283656	0.95550585	-0.65496753	28.28673422	7.27242549	1.98829243	-47.31541538	22.95305562	-19.84220413	0	-23.07942094	-3.82932967	5.07877927	1.37209208	22.4817643	-24.14411305	0	-30.240383	7.62237463	-3.93408976
97.7	-4.07612539	-7.07090226	-1.87941064	1.32894594	0.95358733	-0.65362058	27.99561839	7.2876719	1.92068539	-47.49546955	22.85874731	-19.74296228	0	-23.30579015	-3.99048014	5.21001656	1.22893819	22.55999308	-24.10362911	0	-30.04448631	7.7541454	-4.09796103
97.71	-4.19148514	-7.02091256	-1.53690267	1.32952719	0.9515971	-0.65227668	27.76834365	7.25922381	1.72058668	-47.89520464	24.02336588	-19.62500218	0	-23.61113099	-4.16786908	5.03777765	1.32773563	22.56428512	-23.62888175	0	-29.80720679	7.88414974	-4.32617628
97.72	-4.29606979	-6.90631799	-1.21768848	1.33012912	0.94990483	-0.65072917	27.49090303	7.20234889	1.57044687	-48.20940758	24.76786015	-20.12113138	0	-23.64378477	-4.25891248	4.93460913	0.87430045	22.79164032	-23.09739855	0	-29.60505847	7.92601424	-4.55439909
97.73	-4.4022733	-6.8040991	-0.91362528	1.33067036	0.9483793	-0.64919806	27.2388813	7.16094407	1.41660826	-48.52729925	25.35503585	-20.48751635	0	-23.6955419	-4.36793878	4.99452297	0.48672185	22.69658905	-22.97403147	0	-29.43567098	8.01108617	-4.62856523
97.74	-4.51188438	-6.67581133	-0.64031035	1.33123181	0.94705532	-0.64746154	27.02855994	7.1674614	1.42790317	-48.87336095	25.80992917	-20.68504057	0	-23.70603633	-4.45734223	5.01074409	-0.00723947	22.53618877	-22.71603345	0	-29.28985586	8.02671284	-4.80757541
97.75	-4.58747517	-6.6267059	-0.45417551	1.33180772	0.94599411	-0.64555572	26.74114928	7.28366689	1.42034894	-49.06205246	26.20815186	-20.78064526	0	-23.9842945	-4.61120617	4.33148535	-0.0431832	22.40327687	-21.61851794	0	-29.19962786	8.1126142	-4.74381923
97.76	-4.65132919	-6.56854215	-0.31914214	1.33244339	0.94531709	-0.64345252	26.42359262	7.41109676	1.45864309	-49.15043308	26.57123146	-21.03796169	0	-24.01300944	-4.72459462	4.18952159	-0.60256709	22.06091522	-21.5257371	0	-29.17464812	8.16855312	-4.73294908
97.77	-4.69264517	-6.54136037	-0.27396663	1.33310513	0.94500371	-0.64122238	26.04328518	7.63736625	1.64104779	-49.12960421	26.67253843	-21.43164704	0	-23.91421762	-4.82321182	3.98294503	-1.47282266	21.74098926	-21.44261634	0	-29.18863325	8.2505502	-4.49182242
97.78	-4.67477539	-6.55968775	-0.1749598	1.33375019	0.94504375	-0.63907678	25.54225244	7.86748912	1.73353229	-48.96301383	26.72512311	-21.86442922	0	-23.81844481	-4.98559738	3.80618871	-2.41648936	21.30722891	-21.40222808	0	-29.29553918	8.39588991	-4.32654563
97.79	-4.59876897	-6.5728342	-0.30790811	1.33479286	0.94537735	-0.63630238	24.9116732	8.17160921	1.96480618	-48.74573528	26.85546688	-22.02437872	0	-23.78007936	-5.06594924	3.3733257	-3.47636508	20.82747548	-21.35361735	0	-29.46188689	8.41918632	-4.01205971
97.8	-4.4984112	-6.53166567	-0.33931518	1.33573405	0.94599492	-0.63375701	24.19813165	8.4193405	2.25383559	-48.42518948	26.94329602	-22.39711252	0	-23.58324827	-5.12094079	3.07799428	-4.81397404	20.29805405	-21.29058057	0	-29.64166382	8.4451544	-3.72266072
97.81	-4.37346343	-6.46138123	-0.34584672	1.33665455	0.94688591	-0.63121693	23.38351671	8.62938195	2.5301258	-47.99896416	27.00132171	-22.88263733	0	-23.28833915	-5.16628922	2.69013208	-6.34200824	19.67285278	-21.18177621	0	-29.82550752	8.44424613	-3.50975913
97.82	-4.24186989	-6.36084103	-0.31480474	1.33768282	0.94802792	-0.62869487	22.47761935	8.7468146	2.71099618	-47.48298619	27.22712493	-22.98542702	0	-22.84930147	-5.20266578	2.34741976	-8.13506018	19.01495386	-21.07622841	0	-29.99521799	8.42602053	-3.27843806
97.83	-4.14129078	-6.1884527	-0.25699095	1.33862371	0.94935874	-0.62619766	21.58702228	8.79038527	2.98387355	-46.95744321	27.35125664	-23.10851394	0	-22.21569916	-5.19045722	2.02346599	-10.17654623	18.27563759	-20.91049761	0	-30.10869836	8.34912343	-3.06744963
97.84	-4.04273821	-6.01571647	-0.12760842	1.33955104	0.95087336	-0.62376734	20.58714706	8.8304629	3.22975678	-46.21060437	27.47507328	-23.41385453	0	-21.41358034	-5.2284738	1.71729956	-12.4813861	17.49152565	-20.62893257	0	-30.19303568	8.30009576	-2.89590095
97.85	-3.95800356	-5.80964471	0.04817783	1.34043476	0.9524833	-0.62139954	19.54606518	8.79702579	3.41008375	-45.28379277	27.67999901	-23.63686724	0	-20.41558639	-5.27228822	1.49598296	-15.08032806	16.68979593	-20.27196069	0	-30.23320201	8.23085066	-2.76026492
97.86	-3.89494914	-5.66140865	0.20550523	1.34134418	0.95424067	-0.61891722	18.524032	8.88957196	3.69065671	-44.41710491	27.50076339	-24.24588902	0	-19.37697859	-5.41762146	1.10860171	-17.67973622	15.84112032	-19.52160689	0	-30.23637067	8.20687396	-2.54497162
97.87	-3.84555253	-5.46079222	0.42568578	1.34198218	0.95607026	-0.616654	17.49337974	8.86762142	3.90478681	-43.38024865	27.50818742	-24.64749356	0	-18.1691011	-5.55782919	0.78798644	-20.47934998	14.95061311	-18.65761123	0	-30.23552951	8.15179452	-2.40555436
97.88	-3.80150709	-5.2368441	0.63795015	1.34254623	0.95792918	-0.61439877	16.48897931	8.8278712	4.14531542	-42.33993711	27.50323169	-25.04217132	0	-16.86028729	-5.66150375	0.59078804	-23.39531308	13.89213617	-17.96807358	0	-30.23043328	8.06175144	-2.23538726
97.89	-3.7409057	-5.01714335	0.88604479	1.34297248	0.95990746	-0.6122567	15.52266498	8.76039756	4.25347548	-41.34890476	27.31050193	-25.51811338	0	-15.51861148	-5.7990521	0.37423284	-26.31666109	12.63769741	-17.23881522	0	-30.25210768	7.97639765	-2.09487688
97.9	-3.72448314	-4.77944188	1.06304285	1.34319671	0.96175914	-0.61009073	14.6342006	8.65725521	4.38279051	-40.42225005	27.23795566	-25.68093084	0	-14.03121585	-5.86494042	0.22388992	-29.39123535	11.28543126	-16.846915	0	-30.24275873	7.84029162	-1.92813909
97.91	-3.66820131	-4.56700492	1.2300034	1.34327333	0.9636426	-0.60798409	13.68051176	8.62602078	4.65091492	-39.42207294	26.91840016	-26.23824077	0	-12.4856602	-5.95405167	0.08361794	-32.61496413	9.95226958	-16.34471499	0	-30.29425746	7.72228242	-1.69248788
97.92	-3.62661275	-4.28694245	1.3608758	1.34321352	0.96545523	-0.60589294	12.76133318	8.51267405	4.90146968	-38.42264009	26.69811879	-26.69473758	0	-10.88984071	-5.90068251	0.08360551	-35.83426399	8.50046839	-16.19285312	0	-30.34557256	7.49951956	-1.52029941
97.93	-3.58271622	-4.01828013	1.33201716	1.34319911	0.96711228	-0.60364109	11.85903022	8.40649438	5.22975221	-37.50353144	26.58074733	-26.96230947	0	-9.34513292	-5.80712114	-0.01941518	-38.9855189	6.75677174	-16.25340847	0	-30.40062786	7.21899763	-1.14321532
97.94	-3.50182568	-3.7151762	1.45529096	1.34261827	0.96866854	-0.60181683	10.99657089	8.24782753	5.48641087	-36.73243661	26.35390884	-27.30839475	0	-7.68860048	-5.5994095	0.23181281	-42.21429454	4.59306068	-17.03994057	0	-30.53369877	6.95737804	-1.01601046
97.95	-3.39802089	-3.43932524	1.49281996	1.34198751	0.97024718	-0.59992392	10.04887039	8.10416282	5.7927895	-35.80430636	26.16871578	-27.57475643	0	-6.11407711	-5.47563112	0.1796307	-45.24332471	2.57396596	-17.37697132	0	-30.69722665	6.68461499	-0.74291751
